<?xml version="1.0" encoding="UTF-8" standalone="no"?>
<svg
   width="360"
   height="360"
   viewBox="0 0 360 360"
   fill="none"
   role="img"
   aria-labelledby="title desc"
   version="1.1"
   id="svg14"
   sodipodi:docname="glaze-logo.svg"
   inkscape:version="1.4.3 (0d15f75042, 2025-12-25)"
   xmlns:inkscape="http://www.inkscape.org/namespaces/inkscape"
   xmlns:sodipodi="http://sodipodi.sourceforge.net/DTD/sodipodi-0.dtd"
   xmlns="http://www.w3.org/2000/svg"
   xmlns:svg="http://www.w3.org/2000/svg"
   xmlns:rdf="http://www.w3.org/1999/02/22-rdf-syntax-ns#"
   xmlns:cc="http://creativecommons.org/ns#"
   xmlns:dc="http://purl.org/dc/elements/1.1/">
  <sodipodi:namedview
     id="namedview14"
     pagecolor="#ffffff"
     bordercolor="#000000"
     borderopacity="0.25"
     inkscape:showpageshadow="2"
     inkscape:pageopacity="0.0"
     inkscape:pagecheckerboard="0"
     inkscape:deskcolor="#d1d1d1"
     inkscape:zoom="1.4207691"
     inkscape:cx="174.20143"
     inkscape:cy="161.88416"
     inkscape:window-width="1728"
     inkscape:window-height="1011"
     inkscape:window-x="0"
     inkscape:window-y="0"
     inkscape:window-maximized="1"
     inkscape:current-layer="svg14" />
  <title
     id="title">Glaze logo</title>
  <desc
     id="desc">Geometric 3D sugar cube with glossy glaze highlights.</desc>
  <defs
     id="defs8">
    <linearGradient
       id="cubeTop"
       x1="22"
       y1="7"
       x2="22"
       y2="17"
       gradientUnits="userSpaceOnUse"
       gradientTransform="translate(-7.3430079,-6.883905)">
      <stop
         offset="0"
         stop-color="#c4b5fd"
         id="stop1" />
      <stop
         offset="1"
         stop-color="#a78bfa"
         id="stop2" />
    </linearGradient>
    <linearGradient
       id="cubeLeft"
       x1="11"
       y1="15"
       x2="22"
       y2="36"
       gradientUnits="userSpaceOnUse"
       gradientTransform="translate(-7.3430079,-6.883905)">
      <stop
         offset="0"
         stop-color="#8b5cf6"
         id="stop3" />
      <stop
         offset="1"
         stop-color="#6d28d9"
         id="stop4" />
    </linearGradient>
    <linearGradient
       id="cubeRight"
       x1="33"
       y1="15"
       x2="22"
       y2="36"
       gradientUnits="userSpaceOnUse"
       gradientTransform="translate(-7.3430079,-6.883905)">
      <stop
         offset="0"
         stop-color="#7c3aed"
         id="stop5" />
      <stop
         offset="1"
         stop-color="#5b21b6"
         id="stop6" />
    </linearGradient>
    <linearGradient
       id="glaze"
       x1="22"
       y1="13"
       x2="22"
       y2="24"
       gradientUnits="userSpaceOnUse"
       gradientTransform="translate(-7.3430079,-6.883905)">
      <stop
         offset="0"
         stop-color="#f8fafc"
         stop-opacity="0.92"
         id="stop7" />
      <stop
         offset="1"
         stop-color="#f1f5f9"
         stop-opacity="0.58"
         id="stop8" />
    </linearGradient>
  </defs>
  <g
     id="g14"
     transform="matrix(13.002136,0,0,10.513379,-10.572204,26.335454)">
    <path
       d="m 14.656992,0.11609499 11,6.50000001 -11,6.5 -10.9999999,-6.5 z"
       fill="url(#cubeTop)"
       id="path8"
       style="fill:url(#cubeTop)" />
    <path
       d="m 3.6569921,6.616095 10.9999999,6.5 v 16 l -10.9999999,-6.5 z"
       fill="url(#cubeLeft)"
       id="path9"
       style="fill:url(#cubeLeft)" />
    <path
       d="m 25.656992,6.616095 -11,6.5 v 16 l 11,-6.5 z"
       fill="url(#cubeRight)"
       id="path10"
       style="fill:url(#cubeRight)" />
    <path
       d="m 7.0569921,8.016095 c 1.4,-1.3 3.3999999,-1.9 5.4999999,-1.9 h 5.8 c 3,0 5.1,0.9 6.1,2.7 0.8,1.4 0.7,3.1 -0.1,4.7 l -0.8,1.7 c -0.3,0.6 -0.9,1.1 -1.6,1.2 l -4.5,0.7 c -0.8,0.1 -1.6,-0.4 -1.8,-1.1 l -0.5,-1.4 c -0.3,-0.9 -1.1,-1.5 -2.1,-1.5 h -1.6 c -2.2999999,0 -3.9999999,-0.8 -4.6999999,-2.3 -0.6,-1.1 -0.5,-2.1 0.3,-2.8 z"
       fill="url(#glaze)"
       id="path11"
       style="fill:url(#glaze)" />
    <path
       d="m 15.556992,18.016095 -0.7,3.2 c -0.2,0.9 -1.4,0.9 -1.7,0.1 l -0.4,-1.1 c -0.3,-0.8 0.2,-1.7 1.1,-1.9 z"
       fill="#f8fafc"
       fill-opacity="0.7"
       id="path12" />
    <path
       d="m 9.4569921,10.216095 c 0.6999999,-0.6 1.5999999,-0.9 2.6999999,-0.9 h 5.2"
       stroke="#ffffff"
       stroke-opacity="0.55"
       stroke-width="1.2"
       stroke-linecap="round"
       id="path13" />
    <circle
       cx="20.556992"
       cy="2.9160953"
       r="1.05"
       fill="#ffffff"
       fill-opacity="0.8"
       id="circle13" />
    <circle
       cx="8.2569923"
       cy="4.4160953"
       r="0.85000002"
       fill="#ffffff"
       fill-opacity="0.65"
       id="circle14" />
  </g>
  <metadata
     id="metadata14">
    <rdf:RDF>
      <cc:Work
         rdf:about="">
        <dc:title>Glaze logo</dc:title>
      </cc:Work>
    </rdf:RDF>
  </metadata>
</svg>
